<svg width="32" height="32" viewBox="0 0 32 32" fill="none" xmlns="http://www.w3.org/2000/svg">
<path fill-rule="evenodd" clip-rule="evenodd" d="M20.7079 12.292C20.801 12.3848 20.8749 12.4952 20.9253 12.6167C20.9758 12.7382 21.0017 12.8684 21.0017 13C21.0017 13.1315 20.9758 13.2617 20.9253 13.3832C20.8749 13.5047 20.801 13.6151 20.7079 13.708L14.7079 19.708C14.615 19.8011 14.5047 19.875 14.3832 19.9254C14.2617 19.9758 14.1315 20.0017 13.9999 20.0017C13.8684 20.0017 13.7381 19.9758 13.6167 19.9254C13.4952 19.875 13.3848 19.8011 13.2919 19.708L10.2919 16.708C10.1989 16.615 10.1252 16.5046 10.0749 16.3831C10.0246 16.2616 9.99866 16.1314 9.99866 16C9.99866 15.8685 10.0246 15.7383 10.0749 15.6168C10.1252 15.4953 10.1989 15.3849 10.2919 15.292C10.3849 15.199 10.4953 15.1252 10.6168 15.0749C10.7382 15.0246 10.8684 14.9987 10.9999 14.9987C11.1314 14.9987 11.2616 15.0246 11.3831 15.0749C11.5046 15.1252 11.6149 15.199 11.7079 15.292L13.9999 17.586L19.2919 12.292C19.3848 12.1988 19.4952 12.1249 19.6167 12.0745C19.7381 12.0241 19.8684 11.9982 19.9999 11.9982C20.1315 11.9982 20.2617 12.0241 20.3832 12.0745C20.5047 12.1249 20.615 12.1988 20.7079 12.292V12.292Z" fill="url(#paint0_linear_15_12)"/>
<path d="M20.546 5.02598L18.704 3.13798L20.134 1.74198L21.378 3.01598L23.158 2.99398C23.9285 2.98486 24.693 3.12989 25.4067 3.42055C26.1203 3.71121 26.7686 4.14163 27.3135 4.6865C27.8583 5.23136 28.2887 5.87967 28.5794 6.5933C28.8701 7.30693 29.0151 8.07148 29.006 8.84198L28.986 10.622L30.258 11.866C30.8089 12.4043 31.2467 13.0473 31.5455 13.7573C31.8444 14.4672 31.9984 15.2297 31.9984 16C31.9984 16.7703 31.8444 17.5328 31.5455 18.2427C31.2467 18.9526 30.8089 19.5956 30.258 20.134L28.984 21.378L29.006 23.158C29.0151 23.9285 28.8701 24.693 28.5794 25.4067C28.2887 26.1203 27.8583 26.7686 27.3135 27.3135C26.7686 27.8583 26.1203 28.2887 25.4067 28.5794C24.693 28.8701 23.9285 29.0151 23.158 29.006L21.378 28.986L20.134 30.258C19.5956 30.8089 18.9526 31.2467 18.2427 31.5455C17.5328 31.8444 16.7703 31.9984 16 31.9984C15.2297 31.9984 14.4672 31.8444 13.7573 31.5455C13.0473 31.2467 12.4043 30.8089 11.866 30.258L10.622 28.984L8.84198 29.006C8.07148 29.0151 7.30693 28.8701 6.5933 28.5794C5.87967 28.2887 5.23136 27.8583 4.6865 27.3135C4.14163 26.7686 3.71121 26.1203 3.42055 25.4067C3.12989 24.693 2.98486 23.9285 2.99398 23.158L3.01398 21.378L1.74198 20.134C1.19106 19.5956 0.753299 18.9526 0.454423 18.2427C0.155548 17.5328 0.00158691 16.7703 0.00158691 16C0.00158691 15.2297 0.155548 14.4672 0.454423 13.7573C0.753299 13.0473 1.19106 12.4043 1.74198 11.866L3.01598 10.622L2.99398 8.84198C2.98486 8.07148 3.12989 7.30693 3.42055 6.5933C3.71121 5.87967 4.14163 5.23136 4.6865 4.6865C5.23136 4.14163 5.87967 3.71121 6.5933 3.42055C7.30693 3.12989 8.07148 2.98486 8.84198 2.99398L10.622 3.01398L11.866 1.74198C12.4043 1.19106 13.0473 0.753299 13.7573 0.454423C14.4672 0.155548 15.2297 0.00158691 16 0.00158691C16.7703 0.00158691 17.5328 0.155548 18.2427 0.454423C18.9526 0.753299 19.5956 1.19106 20.134 1.74198L18.704 3.13798C18.3519 2.77755 17.9313 2.49115 17.467 2.29561C17.0026 2.10007 16.5038 1.99934 16 1.99934C15.4961 1.99934 14.9974 2.10007 14.533 2.29561C14.0686 2.49115 13.6481 2.77755 13.296 3.13798L11.456 5.02598L8.81598 4.99398C8.31233 4.98835 7.81264 5.08343 7.34626 5.27363C6.87988 5.46384 6.45622 5.74533 6.10016 6.10158C5.7441 6.45782 5.46282 6.88164 5.27286 7.34812C5.0829 7.8146 4.98808 8.31434 4.99398 8.81798L5.02598 11.454L3.13798 13.296C2.77755 13.6481 2.49115 14.0686 2.29561 14.533C2.10007 14.9974 1.99934 15.4961 1.99934 16C1.99934 16.5038 2.10007 17.0026 2.29561 17.467C2.49115 17.9313 2.77755 18.3519 3.13798 18.704L5.02598 20.544L4.99398 23.184C4.98835 23.6876 5.08343 24.1873 5.27363 24.6537C5.46384 25.1201 5.74533 25.5437 6.10158 25.8998C6.45782 26.2559 6.88164 26.5371 7.34812 26.7271C7.8146 26.9171 8.31434 27.0119 8.81798 27.006L11.454 26.974L13.296 28.862C13.6481 29.2224 14.0686 29.5088 14.533 29.7043C14.9974 29.8999 15.4961 30.0006 16 30.0006C16.5038 30.0006 17.0026 29.8999 17.467 29.7043C17.9313 29.5088 18.3519 29.2224 18.704 28.862L20.544 26.974L23.184 27.006C23.6876 27.0116 24.1873 26.9165 24.6537 26.7263C25.1201 26.5361 25.5437 26.2546 25.8998 25.8984C26.2559 25.5421 26.5371 25.1183 26.7271 24.6518C26.9171 24.1854 27.0119 23.6856 27.006 23.182L26.974 20.546L28.862 18.704C29.2224 18.3519 29.5088 17.9313 29.7043 17.467C29.8999 17.0026 30.0006 16.5038 30.0006 16C30.0006 15.4961 29.8999 14.9974 29.7043 14.533C29.5088 14.0686 29.2224 13.6481 28.862 13.296L26.974 11.456L27.006 8.81598C27.0116 8.31233 26.9165 7.81264 26.7263 7.34626C26.5361 6.87988 26.2546 6.45622 25.8984 6.10016C25.5421 5.7441 25.1183 5.46282 24.6518 5.27286C24.1854 5.0829 23.6856 4.98808 23.182 4.99398L20.546 5.02598V5.02598Z" fill="url(#paint1_linear_15_12)"/>
<defs>
<linearGradient id="paint0_linear_15_12" x1="15.5002" y1="11.9982" x2="15.5002" y2="20.0017" gradientUnits="userSpaceOnUse">
<stop stop-color="#3B2DED"/>
<stop offset="0.494792" stop-color="#6E25E7"/>
<stop offset="1" stop-color="#881FE4"/>
</linearGradient>
<linearGradient id="paint1_linear_15_12" x1="16" y1="0.00158691" x2="16" y2="31.9984" gradientUnits="userSpaceOnUse">
<stop stop-color="#3B2DED"/>
<stop offset="0.494792" stop-color="#6E25E7"/>
<stop offset="1" stop-color="#881FE4"/>
</linearGradient>
</defs>
</svg>
