<svg width="528" height="245" viewBox="0 0 528 245" fill="none" xmlns="http://www.w3.org/2000/svg">
<path d="M22 46.5L0.5 0H199L258.5 73V0H324.5L347.5 68L359 0H422.5L443 68L463 0H528L463 159.5H414L390.5 80.5L373 159.5H324.5L303 110.5V159.5H264.5L203.5 80.5V159.5H151V46.5H111.5V159.5H64.5V46.5H22Z" fill="white"/>
<path d="M43.642 192.031V186.364H77.4134V192.031H63.7983V230H57.2358V192.031H43.642ZM84.8761 230V186.364H91.4599V205.327H113.214V186.364H119.819V230H113.214V210.973H91.4599V230H84.8761ZM129.407 230V186.364H156.765V192.031H135.991V205.327H155.338V210.973H135.991V224.332H157.021V230H129.407ZM216.659 186.364V230H210.608L188.427 197.997H188.022V230H181.439V186.364H187.532L209.734 218.409H210.139V186.364H216.659ZM226.263 230V186.364H253.621V192.031H232.847V205.327H252.193V210.973H232.847V224.332H253.876V230H226.263ZM266.996 186.364L277.436 203.43H277.777L288.218 186.364H295.846L282.252 208.182L295.931 230H288.26L277.777 213.168H277.436L266.953 230H259.283L273.196 208.182L259.368 186.364H266.996ZM300.224 192.031V186.364H333.995V192.031H320.38V230H313.818V192.031H300.224ZM365.881 230L353.779 186.364H360.703L369.205 220.156H369.61L378.452 186.364H385.313L394.155 220.178H394.56L403.04 186.364H409.986L397.863 230H391.236L382.053 197.315H381.712L372.529 230H365.881ZM415.989 230V186.364H443.347V192.031H422.573V205.327H441.92V210.973H422.573V224.332H443.603V230H415.989ZM452.142 230V186.364H468.122C471.218 186.364 473.782 186.875 475.814 187.898C477.845 188.906 479.365 190.277 480.373 192.01C481.382 193.729 481.886 195.668 481.886 197.827C481.886 199.645 481.552 201.179 480.885 202.429C480.217 203.665 479.322 204.659 478.2 205.412C477.092 206.151 475.87 206.69 474.535 207.031V207.457C475.984 207.528 477.397 207.997 478.775 208.864C480.167 209.716 481.318 210.93 482.227 212.507C483.136 214.084 483.591 216.001 483.591 218.26C483.591 220.49 483.065 222.493 482.014 224.268C480.977 226.03 479.372 227.429 477.199 228.466C475.025 229.489 472.248 230 468.868 230H452.142ZM458.725 224.354H468.228C471.382 224.354 473.64 223.743 475.004 222.521C476.368 221.3 477.049 219.773 477.049 217.94C477.049 216.562 476.701 215.298 476.005 214.148C475.309 212.997 474.315 212.081 473.022 211.399C471.744 210.717 470.224 210.376 468.463 210.376H458.725V224.354ZM458.725 205.241H467.547C469.024 205.241 470.352 204.957 471.531 204.389C472.724 203.821 473.669 203.026 474.365 202.003C475.075 200.966 475.43 199.744 475.43 198.338C475.43 196.534 474.798 195.021 473.534 193.8C472.27 192.578 470.331 191.967 467.717 191.967H458.725V205.241Z" fill="white"/>
</svg>
